<?xml version="1.0" encoding="UTF-8"?>
<svg version="1.1" xmlns="http://www.w3.org/2000/svg" width="48" height="48">
<path d="M0 0 C3.17745437 2.48328078 4.02992696 5.11970785 5 9 C5.53469128 15.3093571 5.53469128 15.3093571 3.5 17.9375 C2.7575 18.4634375 2.7575 18.4634375 2 19 C5.17539556 22.42578949 5.17539556 22.42578949 9 25 C9.33 23.68 9.66 22.36 10 21 C16.258654 20.4673486 20.45108785 22.18150494 26 25 C26.61176787 34.85626008 26.61176787 34.85626008 24.5625 38.6875 C19.23062459 41.41846057 13.63886556 40.34282475 8 38.9375 C-0.11306936 36.24996691 -6.97487565 30.56091986 -11 23 C-13.8188859 16.89431597 -15.02240117 10.69973473 -14 4 C-11.23198953 -1.28438362 -5.34961606 -0.99133119 0 0 Z M-10 5 C-10.60372771 13.60311985 -8.344812 20.170518 -3 27 C2.12891496 32.47709196 7.78501288 35.52511079 15.31640625 36.2109375 C17.72166047 36.28639347 17.72166047 36.28639347 21 36 C22.20561184 35.01732141 22.20561184 35.01732141 22.09765625 33.15234375 C22.08605469 32.42144531 22.07445312 31.69054687 22.0625 30.9375 C22.041875 29.638125 22.02125 28.33875 22 27 C18.38026598 25.68373308 15.90432869 25 12 25 C11.34 26.32 10.68 27.64 10 29 C6.48179259 28.39913761 4.49817544 27.06784372 1.8125 24.75 C1.11769531 24.16734375 0.42289063 23.5846875 -0.29296875 22.984375 C-2.29176291 20.66083397 -2.65255491 19.00773361 -3 16 C-1.68 15.01 -0.36 14.02 1 13 C0.34 10.03 -0.32 7.06 -1 4 C-5.79970742 3.47166284 -5.79970742 3.47166284 -10 5 Z " fill="#FFFFFF" transform="translate(18,4)"/>
</svg>
