<?xml version="1.0" encoding="UTF-8"?>
<svg version="1.1" xmlns="http://www.w3.org/2000/svg" width="48" height="48">
<path d="M0 0 C5.09297013 4.30943627 6.44942969 8.78198698 7.1015625 15.0859375 C6.90118763 24.95895391 -0.99609382 34.36383338 -7.2734375 41.4609375 C-9.74764729 43.03005952 -10.77773533 43.47364781 -13.7109375 43.3984375 C-19.54939401 41.26241683 -23.06208227 35.25852354 -26.5234375 30.3359375 C-26.96945313 29.71589844 -27.41546875 29.09585938 -27.875 28.45703125 C-32.16965037 22.40547846 -33.04153576 17.75246187 -32.2734375 10.4609375 C-30.48810031 4.56422382 -27.34316414 0.84075526 -22.2734375 -2.5390625 C-14.26921652 -5.86156932 -7.04855607 -4.85816813 0 0 Z M-23.5859375 6.4609375 C-26.26145646 9.63192293 -26.79535538 12.97736917 -26.75 17.08203125 C-25.19054217 24.86653797 -18.48365501 31.74240609 -13.2734375 37.4609375 C-7.1953668 31.95268593 0.34128745 24.08423811 1.0390625 15.7109375 C0.97195945 10.42896915 -1.42549192 7.37488114 -5.0234375 3.6484375 C-12.16763872 -0.12211314 -17.70026598 1.370627 -23.5859375 6.4609375 Z " fill="#99999A" transform="translate(36.2734375,4.5390625)"/>
<path d="M0 0 C2.4375 1.625 2.4375 1.625 4 4 C4.59874771 8.11639054 4.42928602 10.24049397 2.375 13.875 C-0.53847245 16.48179114 -2.1038517 17 -6 17 C-8.87872577 15.6260627 -10.74989437 14.25010563 -13 12 C-13.68767908 4.89398281 -13.68767908 4.89398281 -11.125 1.5625 C-7.08746789 -1.40627361 -4.90824906 -1.10012479 0 0 Z M-7.75 4.1875 C-9.2842979 5.99648167 -9.2842979 5.99648167 -8.75 8.625 C-8.22254355 10.9312407 -8.22254355 10.9312407 -7 12 C-4.54190002 12.2500773 -4.54190002 12.2500773 -2 12 C-1.34 11.34 -0.68 10.68 0 10 C-0.32971479 6.70285207 -0.6226839 5.3773161 -3 3 C-5.9387397 2.71924929 -5.9387397 2.71924929 -7.75 4.1875 Z " fill="#F9F9F9" transform="translate(28,12)"/>
</svg>
