<svg width="93" height="40" viewBox="0 0 93 40" fill="none" xmlns="http://www.w3.org/2000/svg">
<path d="M64.3698 12.1651C64.3698 11.6957 64.2069 11.2903 63.8835 10.9487C63.56 10.6071 63.1791 10.4253 62.7406 10.4056H57.309V27.9658C57.3282 28.4745 57.5127 28.9046 57.8673 29.256C58.2195 29.6074 58.6435 29.7843 59.1395 29.7843H59.5109V30.0767H53.2503V29.7843H53.6217C54.1176 29.7843 54.5417 29.6074 54.8939 29.256C55.2461 28.9046 55.433 28.4844 55.4522 27.9953V10.4081H50.0206C49.5629 10.4277 49.1772 10.6096 48.8633 10.9511C48.5495 11.2927 48.3913 11.6982 48.3913 12.1675V12.6664L48.1062 12.6959V9C48.3913 9.11795 48.8873 9.23345 49.5917 9.3514C50.2961 9.46935 50.9454 9.52833 51.5348 9.52833H61.1952C62.1296 9.52833 62.9059 9.45461 63.5241 9.30717C64.1422 9.15973 64.5208 9.05898 64.6526 9V12.6934L64.3674 12.6639V12.1651H64.3698Z" fill="white"/>
<path d="M52.2107 12.1154L48.5234 25.3285L42.8905 9.11738L42.6341 9.08789L37.3176 25.9134L32.9737 11.6362C32.9162 11.442 32.8875 11.2258 32.8875 10.9923C32.8875 10.7589 32.9881 10.5082 33.187 10.2453C33.3858 9.98237 33.6877 9.84967 34.0878 9.84967H34.3442V9.55725H27.9998V9.84967H28.2274C28.7233 9.84967 29.2097 10.002 29.6841 10.3043C30.1609 10.6065 30.5131 11.0513 30.7407 11.6386L37.2289 30.43H37.4853C37.5236 29.4716 37.7225 28.3879 38.0867 27.1765L42.4305 13.6635L48.2622 30.43H48.5186C48.5569 29.4913 48.7654 28.4076 49.1463 27.1765L53.5644 12.7371L52.2059 12.1178L52.2107 12.1154Z" fill="white"/>
</svg>
